<svg width="208" height="55" viewBox="0 0 208 55" fill="none" xmlns="http://www.w3.org/2000/svg">
<rect x="0.668335" y="8.03662" width="204.701" height="46.7769" transform="rotate(-2.25 0.668335 8.03662)" fill="black"/>
<path d="M82.4882 39.3741L82.1678 31.2204L89.6021 30.9283L89.4231 26.3718L81.9888 26.6639L81.8428 22.9468L91.2855 22.5758L91.1064 18.0193L76.3278 18.5999L77.1523 39.5837L82.4882 39.3741ZM111.264 38.2435L102.615 17.5671L97.5194 17.7673L90.5199 39.0585L96.0656 38.8406L97.3132 34.6785L104.148 34.4099L105.748 38.4602L111.264 38.2435ZM100.342 24.6518L102.445 30.0334L98.6677 30.1818L100.342 24.6518ZM132.616 26.8965C132.373 20.7212 127.578 16.3461 121.343 16.5911C115.048 16.8384 110.58 21.5775 110.823 27.7527C111.036 33.1785 114.767 37.2052 119.93 37.933L119.97 38.9523C120.112 42.5795 121.907 43.95 126.164 43.7828L129.132 43.6662L128.983 39.8891L126.315 39.9939C125.116 40.041 124.619 39.6102 124.574 38.4711L124.545 37.7217C129.512 36.5358 132.827 32.2623 132.616 26.8965ZM116.159 27.5431C116.02 24.0058 118.224 21.2772 121.492 21.1488C124.729 21.0216 127.141 23.5688 127.28 27.1061C127.419 30.6434 125.215 33.372 121.977 33.4992C118.71 33.6276 116.298 31.0804 116.159 27.5431Z" fill="#E9E9EC"/>
</svg>
