<svg width="219" height="69" viewBox="0 0 219 69" fill="none" xmlns="http://www.w3.org/2000/svg">
<rect width="216.598" height="61.1132" transform="matrix(0.999484 0.0321085 -0.0368976 0.999319 2.38441 0.517334)" fill="black"/>
<path d="M53.1279 44.6673L53.4547 35.8173L57.7365 35.9549C63.2776 36.1329 66.5715 32.781 66.7455 28.0682C66.9195 23.3554 63.8807 19.8 58.3396 19.622L47.6171 19.2775L46.6873 44.4604L53.1279 44.6673ZM53.8638 24.7369L57.7138 24.8605C59.7648 24.9264 60.6858 26.3247 60.6287 27.8717C60.5716 29.4186 59.5496 30.7545 57.4987 30.6886L53.6486 30.5649L53.8638 24.7369ZM74.5093 45.3542L74.8786 35.353C74.945 33.5542 76.2549 32.2276 78.0539 32.2854C79.853 32.3432 81.0619 33.7507 80.9955 35.5495L80.6262 45.5507L86.5631 45.7414L86.9842 34.3372C87.133 30.3079 84.5806 27.2364 80.5147 27.1058C78.1399 27.0295 76.197 27.9396 75.1018 29.3091L75.4764 19.164L69.5394 18.9733L68.5724 45.1634L74.5093 45.3542ZM98.1684 27.6729C92.8071 27.5007 89.9237 30.4696 89.6442 34.1345L94.8256 34.3009C94.9094 33.007 95.6742 31.8069 97.6531 31.8705C99.2723 31.9225 100.144 32.7069 100.104 33.7862C100.072 34.6496 99.5446 35.2809 98.6091 35.2509L96.0184 35.1677C92.2044 35.0451 89.534 37.1204 89.4025 40.682C89.2909 43.704 91.6127 46.1918 94.9949 46.3004C97.3337 46.3755 99.206 45.4272 99.7295 43.9312L99.6472 46.1617L105.548 46.3513L105.978 34.6952C106.13 30.594 102.702 27.8186 98.1684 27.6729ZM99.9102 39.0386C99.8477 40.7294 98.7098 42.2777 96.8028 42.2164C95.7594 42.1829 94.9917 41.5099 95.0262 40.5745C95.0661 39.4953 95.8496 38.7641 96.893 38.7976L99.9155 38.8947L99.9102 39.0386ZM115.34 46.954C119.73 47.095 122.659 44.8479 122.79 41.2864C123.09 33.1559 113.339 36.7686 113.457 33.5668C113.491 32.6314 114.264 32.188 115.38 32.2238C116.603 32.2631 117.615 33.1601 117.749 34.389L122.787 34.5509C122.778 30.8767 119.809 28.3681 115.275 28.2225C111.641 28.1057 108.675 30.3876 108.554 33.6614C108.276 41.1803 117.781 38.4241 117.672 41.3741C117.642 42.1655 116.76 42.6414 115.501 42.601C113.99 42.5524 112.906 41.6532 112.774 40.3523L107.773 40.1916C107.806 44.1547 110.807 46.8084 115.34 46.954ZM133.656 42.752C131.497 42.6826 130.28 41.491 129.995 39.4648L142.48 39.8659C142.532 39.4353 142.587 38.9328 142.617 38.1054C142.758 34.292 140.683 29.0387 133.81 28.8179C127.298 28.6087 124.52 33.598 124.362 37.8791C124.203 42.1602 126.967 47.3275 133.479 47.5367C137.941 47.6801 141.597 45.2402 142.502 41.2353L136.781 41.0515C136.412 42.2642 135.275 42.804 133.656 42.752ZM133.655 33.027C135.706 33.0929 136.767 34.6038 136.818 36.1542L130.125 35.9392C130.602 33.7574 131.748 32.9658 133.655 33.027ZM169.978 48.4211L170.14 44.0321L172.658 44.113L172.86 38.6447L170.342 38.5638L170.907 23.2383L164.179 23.0221L151.631 37.9627L151.429 43.431L163.699 43.8252L163.537 48.2142L169.978 48.4211ZM164.208 31.0191L163.937 38.3581L157.856 38.1627L164.208 31.0191Z" fill="#E9E9EC"/>
</svg>
