<svg width="219" height="73" viewBox="0 0 219 73" fill="none" xmlns="http://www.w3.org/2000/svg">
<rect width="216.598" height="61.1132" transform="matrix(0.998848 -0.0479781 0.0431912 0.999067 0.00604248 11.1982)" fill="black"/>
<path d="M54.9215 51.1345L54.539 42.2868L58.8181 42.0813C64.3557 41.8153 67.3708 38.2105 67.1671 33.4989C66.9634 28.7873 63.6498 25.4865 58.1121 25.7525L47.3965 26.2672L48.4849 51.4437L54.9215 51.1345ZM54.0601 31.2091L57.9077 31.0243C59.9573 30.9259 60.9873 32.246 61.0541 33.7925C61.121 35.3391 60.2092 36.7524 58.1595 36.8509L54.312 37.0357L54.0601 31.2091ZM76.2893 50.1082L75.857 40.1095C75.7793 38.3112 76.9788 36.884 78.7767 36.7976C80.5746 36.7113 81.8922 38.0176 81.97 39.8159L82.4022 49.8145L88.3354 49.5295L87.8425 38.1282C87.6684 34.1 84.8784 31.2426 80.8151 31.4377C78.4418 31.5517 76.578 32.6144 75.5958 34.0671L75.1573 23.9246L69.2242 24.2096L70.3561 50.3931L76.2893 50.1082ZM98.4575 30.5903C93.0997 30.8477 90.463 34.0378 90.4778 37.7133L95.6558 37.4646C95.6358 36.168 96.3021 34.9106 98.2798 34.8156C99.898 34.7379 100.83 35.45 100.876 36.529C100.914 37.3922 100.438 38.0638 99.5032 38.1087L96.9142 38.2331C93.1026 38.4161 90.6069 40.6985 90.7608 44.2592C90.8914 47.2803 93.4048 49.5744 96.7849 49.412C99.1222 49.2997 100.913 48.2046 101.315 46.6716L101.411 48.9015L107.308 48.6182L106.805 36.9651C106.627 32.8649 102.988 30.3727 98.4575 30.5903ZM101.103 41.7801C101.176 43.4705 100.166 45.1049 98.2602 45.1964C97.2174 45.2465 96.3983 44.6371 96.3579 43.702C96.3112 42.623 97.0337 41.8314 98.0765 41.7813L101.097 41.6363L101.103 41.7801ZM117.117 48.4354C121.504 48.2247 124.244 45.7504 124.09 42.1897C123.738 34.0613 114.307 38.4428 114.169 35.2418C114.128 34.3067 114.863 33.8028 115.978 33.7493C117.2 33.6906 118.281 34.5037 118.513 35.7179L123.547 35.4761C123.245 31.8144 120.084 29.5515 115.554 29.7691C111.922 29.9436 109.148 32.4555 109.289 35.7285C109.614 43.2455 118.867 39.7375 118.995 42.6868C119.029 43.478 118.188 44.023 116.929 44.0834C115.419 44.156 114.267 43.3463 114.031 42.0602L109.033 42.3003C109.384 46.2479 112.586 48.653 117.117 48.4354ZM135.038 42.7811C132.88 42.8848 131.572 41.7943 131.126 39.7974L143.603 39.1981C143.62 38.7648 143.635 38.2595 143.599 37.4323C143.434 33.6198 140.945 28.5495 134.077 28.8794C127.568 29.192 125.198 34.3876 125.383 38.6676C125.568 42.9476 128.736 47.8773 135.245 47.5647C139.704 47.3505 143.153 44.6259 143.734 40.5614L138.017 40.836C137.746 42.0744 136.656 42.7034 135.038 42.7811ZM134.259 33.0875C136.308 32.989 137.487 34.4101 137.661 35.9515L130.973 36.2727C131.274 34.0598 132.353 33.179 134.259 33.0875ZM163.295 46.2173C168.473 45.9686 172.837 42.7315 172.626 37.8401C172.514 35.2505 171.018 33.1599 168.604 32.3387C170.285 31.2128 171.208 29.2223 171.112 26.9923C170.952 23.2878 166.964 20.2356 161.894 20.4792C157.291 20.7003 152.854 23.9048 153.079 29.12L159.12 28.8298C158.997 26.8174 160.332 26.0324 161.987 25.953C163.713 25.8701 164.938 26.7122 164.996 28.043C165.053 29.3737 164.015 30.3607 162.469 30.435L160.059 30.5507L160.282 35.6939L162.835 35.5712C164.884 35.4728 166.258 36.4159 166.325 37.9625C166.394 39.545 165.108 40.652 163.059 40.7504C161.189 40.8402 159.501 40.1284 159.413 38.1143L153.265 38.4097C153.495 43.7327 157.973 46.4729 163.295 46.2173Z" fill="#E9E9EC"/>
</svg>
