<svg width="219" height="67" viewBox="0 0 219 67" fill="none" xmlns="http://www.w3.org/2000/svg">
<rect width="216.598" height="61.1132" transform="matrix(0.999762 -0.0218149 0.0170239 0.999855 0.706696 5.34082)" fill="black"/>
<path d="M58.334 46.6082L58.1833 37.7535L62.4663 37.66C68.0089 37.5391 71.1173 34.0145 71.0371 29.2992C70.9568 24.5838 67.7307 21.1974 62.188 21.3184L51.4626 21.5524L51.8916 46.7488L58.334 46.6082ZM57.9945 26.6671L61.8456 26.5831C63.8971 26.5383 64.8922 27.8849 64.9185 29.4327C64.9449 30.9804 63.9964 32.3694 61.9449 32.4142L58.0938 32.4982L57.9945 26.6671ZM79.7214 46.1415L79.551 36.135C79.5204 34.3352 80.7568 32.9399 82.5563 32.9007C84.3559 32.8614 85.6389 34.2017 85.6695 36.0015L85.8399 46.008L91.7785 45.8784L91.5842 34.4681C91.5156 30.4367 88.8014 27.5072 84.7343 27.596C82.3589 27.6478 80.4679 28.6613 79.448 30.0878L79.2752 19.9373L73.3366 20.0669L73.7828 46.2711L79.7214 46.1415ZM102.393 27.2106C97.0302 27.3277 94.3109 30.4477 94.2295 34.1223L99.4122 34.0092C99.4262 32.7126 100.125 31.4731 102.105 31.4299C103.724 31.3946 104.637 32.1308 104.655 33.2107C104.67 34.0745 104.177 34.7334 103.241 34.7538L100.65 34.8104C96.835 34.8936 94.2803 37.1099 94.341 40.6734C94.3925 43.6969 96.845 46.0559 100.228 45.9821C102.568 45.9311 104.386 44.8832 104.828 43.3612L104.866 45.5929L110.769 45.4641L110.57 33.8018C110.5 29.6983 106.928 27.1117 102.393 27.2106ZM104.745 38.4659C104.774 40.1576 103.721 41.765 101.813 41.8066C100.77 41.8294 99.9667 41.1987 99.9508 40.2629C99.9324 39.183 100.675 38.4107 101.719 38.3879L104.742 38.3219L104.745 38.4659ZM120.579 45.5381C124.97 45.4423 127.774 43.0406 127.713 39.4771C127.574 31.3422 118.031 35.4754 117.977 32.2718C117.961 31.336 118.709 30.8515 119.825 30.8272C121.048 30.8005 122.107 31.6416 122.308 32.8615L127.346 32.7515C127.14 29.0832 124.04 26.7383 119.505 26.8373C115.869 26.9166 113.031 29.3551 113.086 32.6306C113.214 40.1535 122.556 36.889 122.606 39.8406C122.62 40.6324 121.765 41.1552 120.505 41.1827C118.993 41.2157 117.863 40.3762 117.661 39.0843L112.658 39.1934C112.905 43.1489 116.044 45.637 120.579 45.5381ZM138.642 40.3549C136.482 40.402 135.203 39.2776 134.809 37.2698L147.298 36.9973C147.326 36.5645 147.354 36.0598 147.34 35.2319C147.275 31.4165 144.919 26.2827 138.045 26.4327C131.53 26.5749 129.025 31.7067 129.098 35.9901C129.171 40.2734 132.209 45.2843 138.723 45.1422C143.186 45.0448 146.706 42.4114 147.393 38.3635L141.67 38.4884C141.367 39.7193 140.261 40.3195 138.642 40.3549ZM138.116 30.6441C140.168 30.5994 141.309 32.0508 141.443 33.5962L134.749 33.7423C135.107 31.538 136.209 30.6857 138.116 30.6441ZM161.758 19.1458C161.375 21.9988 160.022 22.8925 157.718 22.9427L156.171 22.9765L156.264 28.4477L157.812 28.414C158.927 28.3896 161.009 27.9841 161.5 27.2532L161.791 44.3507L168.198 44.211L167.769 19.0146L161.758 19.1458Z" fill="#E9E9EC"/>
</svg>
