<svg width="221" height="73" viewBox="0 0 221 73" fill="none" xmlns="http://www.w3.org/2000/svg">
<rect width="216.598" height="61.1132" transform="matrix(0.998848 0.0479781 -0.0527639 0.998607 3.93812 0.820312)" fill="black"/>
<path d="M55.4506 45.8377L55.9179 36.994L60.197 37.1996C65.7346 37.4656 69.0813 34.1664 69.3301 29.457C69.579 24.7475 66.597 21.1443 61.0594 20.8784L50.3437 20.3636L49.0141 45.5285L55.4506 45.8377ZM56.503 25.9215L60.3505 26.1063C62.4002 26.2048 63.2989 27.6175 63.2172 29.1633C63.1355 30.7092 62.0925 32.0286 60.0428 31.9302L56.1953 31.7454L56.503 25.9215ZM76.8185 46.8641L77.3465 36.87C77.4415 35.0725 78.7722 33.7669 80.5701 33.8532C82.3681 33.9396 83.5544 35.3662 83.4595 37.1636L82.9314 47.1577L88.8646 47.4427L89.4667 36.0466C89.6794 32.0202 87.1762 28.9086 83.1129 28.7134C80.7396 28.5994 78.7825 29.4785 77.6656 30.8304L78.2013 20.6926L72.2681 20.4076L70.8853 46.5791L76.8185 46.8641ZM100.755 29.5608C95.3975 29.3035 92.4672 32.2262 92.1296 35.8862L97.3077 36.1349C97.412 34.8424 98.1958 33.6547 100.173 33.7497C101.792 33.8274 102.651 34.6255 102.594 35.704C102.548 36.5668 102.01 37.1897 101.076 37.1448L98.4866 37.0205C94.675 36.8374 91.972 38.87 91.7839 42.429C91.6244 45.4488 93.9063 47.9732 97.2864 48.1356C99.6237 48.2478 101.511 47.3293 102.058 45.8419L101.94 48.0708L107.837 48.354L108.453 36.7063C108.669 32.608 105.286 29.7784 100.755 29.5608ZM102.316 40.9527C102.227 42.6423 101.065 44.1723 99.159 44.0808C98.1162 44.0307 97.3593 43.3456 97.4086 42.4109C97.4656 41.3324 98.2607 40.6137 99.3034 40.6638L102.324 40.8089L102.316 40.9527ZM117.619 49.1122C122.006 49.3229 124.97 47.1226 125.158 43.5636C125.587 35.4389 115.779 38.8963 115.948 35.6967C115.998 34.762 116.777 34.331 117.892 34.3845C119.115 34.4432 120.112 35.3561 120.227 36.5871L125.261 36.8289C125.311 33.1551 122.382 30.5996 117.851 30.382C114.22 30.2075 111.217 32.4421 111.045 35.7135C110.648 43.227 120.194 40.6221 120.039 43.57C119.997 44.3609 119.107 44.8227 117.849 44.7623C116.338 44.6897 115.269 43.7734 115.158 42.4705L110.16 42.2305C110.13 46.1936 113.088 48.8946 117.619 49.1122ZM135.999 45.2016C133.841 45.098 132.644 43.8871 132.39 41.8566L144.868 42.456C144.927 42.0263 144.989 41.5247 145.033 40.6979C145.234 36.8872 143.243 31.6016 136.374 31.2717C129.866 30.9591 127.009 35.9037 126.783 40.1817C126.557 44.4597 129.238 49.6703 135.746 49.9829C140.205 50.1971 143.9 47.8156 144.868 43.8255L139.15 43.5509C138.762 44.7577 137.617 45.2793 135.999 45.2016ZM136.152 35.4779C138.202 35.5763 139.239 37.1038 139.265 38.6548L132.577 38.3336C133.088 36.1596 134.246 35.3863 136.152 35.4779ZM160.948 34.9749C161.05 32.3489 162.154 30.5638 164.276 30.6657C166.289 30.7624 167.233 31.9971 167.138 33.7946C167.061 35.2686 165.923 36.3312 164.448 36.9451L160.133 38.7922C157.847 39.7636 154.404 42.1571 154.248 45.7898L154.031 50.5729L172.478 51.4589L172.766 45.9945L160.684 45.4142C160.72 44.7312 161.862 44.2814 162.785 43.8572L167.031 41.9708C171.238 40.1185 173.357 37.5532 173.539 34.1021C173.797 29.2129 170.191 25.832 164.545 25.5608C158.756 25.2827 154.862 28.6998 154.547 34.6675L160.948 34.9749Z" fill="#E9E9EC"/>
</svg>
