<svg width="251" height="71" viewBox="0 0 251 71" fill="none" xmlns="http://www.w3.org/2000/svg">
<rect width="248.408" height="61.1132" transform="matrix(0.999229 -0.0392598 0.0344712 0.999406 0.338501 9.75244)" fill="black"/>
<path d="M69.4141 42.3512C69.1276 40.3089 68.0992 38.6921 66.5512 37.6721C68.3163 36.63 69.3396 34.9685 69.2565 32.558C69.0939 27.8448 65.8092 24.5152 60.2695 24.7329L49.19 25.1682L50.0587 50.3532L56.4977 50.1002L56.1999 41.4653L60.2648 41.3056C61.6677 41.2505 62.7791 42.1435 63.0074 43.5396L64.0159 49.8048L70.455 49.5518L69.4141 42.3512ZM60.019 30.0027C62.0694 29.9221 63.0878 31.2512 63.1412 32.7982C63.1945 34.3453 62.2704 35.7507 60.22 35.8312L56.0113 35.9966L55.8102 30.1681L60.019 30.0027ZM81.2456 49.4161C86.8932 49.1942 90.8204 45.0408 90.6355 39.68C90.4506 34.3192 86.2479 30.4853 80.6003 30.7072C74.9527 30.9291 71.0255 35.0824 71.2104 40.4432C71.3953 45.8041 75.598 49.638 81.2456 49.4161ZM81.0719 44.3791C78.8056 44.4681 77.2352 42.8005 77.1459 40.21C77.0565 37.6196 78.5078 35.8332 80.774 35.7442C83.0403 35.6552 84.6107 37.3228 84.7 39.9132C84.7894 42.5037 83.3381 44.29 81.0719 44.3791ZM100.352 29.9312C94.992 30.1417 92.3276 33.3088 92.3103 36.9842L97.4903 36.7807C97.4816 35.4841 98.1589 34.2325 100.137 34.1548C101.756 34.0912 102.681 34.8114 102.719 35.8908C102.748 36.7542 102.267 37.4216 101.332 37.4584L98.7419 37.5602C94.9289 37.71 92.4133 39.9704 92.5362 43.5323C92.6404 46.5545 95.1337 48.8704 98.5151 48.7376C100.853 48.6457 102.653 47.5662 103.069 46.0367L103.146 48.2674L109.045 48.0356L108.643 36.3785C108.501 32.277 104.884 29.7531 100.352 29.9312ZM102.9 41.1436C102.958 42.8346 101.934 44.4601 100.027 44.535C98.9839 44.576 98.1702 43.9595 98.1379 43.024C98.1007 41.9447 98.83 41.1594 99.8732 41.1184L102.895 40.9997L102.9 41.1436ZM119.718 47.9045C121.589 47.831 123.221 47.1183 124.152 45.8929L124.205 47.44L130.141 47.2068L129.237 21.0143L123.302 21.2475L123.629 30.7459C122.622 29.7407 121.088 29.1164 118.965 29.1998C113.857 29.4005 110.707 33.091 110.906 38.8836C111.106 44.6761 114.503 48.1094 119.718 47.9045ZM120.588 42.8265C118.358 42.9141 116.787 41.2465 116.698 38.656C116.609 36.0656 118.06 34.2792 120.29 34.1916C122.556 34.1026 124.127 35.7702 124.216 38.3606C124.305 40.9511 122.854 42.7374 120.588 42.8265ZM139.623 46.8342L139.273 36.6882C139.204 34.6734 140.274 33.3344 141.965 33.268C143.656 33.2015 144.815 34.4529 144.885 36.4677L145.235 46.6137L151.17 46.3805L150.82 36.2345C150.751 34.2197 151.821 32.8807 153.512 32.8143C155.203 32.7478 156.362 33.9993 156.432 36.0141L156.782 46.16L162.717 45.9268L162.302 33.874C162.186 30.528 159.456 27.6089 155.499 27.7644C152.513 27.8817 150.37 29.4431 149.453 31.0643C148.414 29.1236 146.758 28.1079 143.988 28.2167C141.686 28.3071 140.102 29.3781 139.072 30.8597L138.998 28.701L133.062 28.9342L133.688 47.0674L139.623 46.8342ZM173.034 27.0755C167.674 27.2861 165.01 30.4531 164.993 34.1285L170.173 33.925C170.164 32.6284 170.841 31.3768 172.82 31.2991C174.438 31.2355 175.364 31.9557 175.401 33.0351C175.431 33.8986 174.949 34.566 174.014 34.6027L171.424 34.7045C167.611 34.8543 165.096 37.1148 165.218 40.6766C165.323 43.6988 167.816 46.0147 171.197 45.8819C173.535 45.79 175.335 44.7105 175.751 43.181L175.828 45.4117L181.727 45.1799L181.325 33.5228C181.184 29.4213 177.567 26.8974 173.034 27.0755ZM175.582 38.2879C175.64 39.9789 174.616 41.6044 172.709 41.6793C171.666 41.7203 170.852 41.1038 170.82 40.1683C170.783 39.089 171.512 38.3037 172.555 38.2628L175.577 38.144L175.582 38.2879ZM191.313 52.1529L191.023 43.7339C191.954 44.634 193.48 45.0064 195.35 44.9329C200.387 44.735 203.933 41.029 203.733 35.2364C203.533 29.4439 200.101 26.012 195.245 26.2028C193.014 26.2904 191.491 27.0348 190.488 28.2271L190.434 26.68L184.499 26.9132L185.378 52.3861L191.313 52.1529ZM194.349 39.9284C192.083 40.0174 190.513 38.3498 190.423 35.7594C190.334 33.1689 191.785 31.3826 194.051 31.2935C196.282 31.2059 197.852 32.8735 197.942 35.464C198.031 38.0544 196.58 39.8408 194.349 39.9284Z" fill="#E9E9EC"/>
</svg>
